STARTFONT 2.1
COMMENT 
COMMENT -dylex-crawl-Bold-R-Normal--14-140-75-75-C-140-ISO10646-1
FONT -dylex-crawl-Bold-O-Normal--14-140-75-75-C-140-ISO10646-1
SIZE 14 75 75
FONTBOUNDINGBOX 14 14 0 -3
STARTPROPERTIES 23
FONT_ASCENT 11
ADD_STYLE_NAME ""
CHARSET_ENCODING "1"
X_HEIGHT 6
RESOLUTION_X 75
_GBDFED_INFO "Edited with gbdfed 1.6."
CAP_HEIGHT 10
CHARSET_REGISTRY "ISO10646"
SETWIDTH_NAME "Normal"
SLANT "O"
FAMILY_NAME "crawl"
FOUNDRY "dylex"
DESTINATION 1
POINT_SIZE 140
FONT_DESCENT 3
COPYRIGHT "Public domain font.  Share and enjoy."
WEIGHT_NAME "Bold"
RESOLUTION_Y 75
PIXEL_SIZE 14
DEFAULT_CHAR 0
FONTNAME_REGISTRY ""
SPACING "C"
AVERAGE_WIDTH 140
ENDPROPERTIES
CHARS 347
STARTCHAR char0
ENCODING 0
SWIDTH 923 0
DWIDTH 14 0
BBX 14 14 0 -3
BITMAP
0000
366C
366C
0000
6018
6018
0000
0000
6018
6018
0000
D9B0
D9B0
0000
ENDCHAR
STARTCHAR char1
ENCODING 1
SWIDTH 923 0
DWIDTH 14 0
BBX 14 14 0 -3
BITMAP
0000
0000
0000
0300
0780
0CC0
1860
0CC0
0780
0300
0000
0000
0000
0000
ENDCHAR
STARTCHAR char2
ENCODING 2
SWIDTH 923 0
DWIDTH 14 0
BBX 14 14 0 -3
BITMAP
5554
AAA8
5554
AAA8
5554
AAA8
5554
AAA8
5554
AAA8
5554
AAA8
5554
AAA8
ENDCHAR
STARTCHAR char3
ENCODING 3
SWIDTH 923 0
DWIDTH 14 0
BBX 14 14 0 -3
BITMAP
0000
7700
7700
7F00
7700
7700
03F8
00E0
00E0
00E0
00E0
0000
0000
0000
ENDCHAR
STARTCHAR char4
ENCODING 4
SWIDTH 923 0
DWIDTH 14 0
BBX 14 14 0 -3
BITMAP
0000
7E00
7000
7C00
7000
71F8
71C0
01F0
01C0
01C0
01C0
0000
0000
0000
ENDCHAR
STARTCHAR char5
ENCODING 5
SWIDTH 923 0
DWIDTH 14 0
BBX 14 14 0 -3
BITMAP
0000
3C00
7600
7000
7000
77F0
3DD8
01D8
01F0
01F8
01D8
0000
0000
0000
ENDCHAR
STARTCHAR char6
ENCODING 6
SWIDTH 923 0
DWIDTH 14 0
BBX 14 14 0 -3
BITMAP
0000
7000
7000
7000
7000
71F8
7FC0
01F0
01C0
01C0
01C0
0000
0000
0000
ENDCHAR
STARTCHAR char7
ENCODING 7
SWIDTH 923 0
DWIDTH 14 0
BBX 14 14 0 -3
BITMAP
1C00
3E00
3600
3E00
1C00
0000
0000
0000
0000
0000
0000
0000
0000
0000
ENDCHAR
STARTCHAR char8
ENCODING 8
SWIDTH 923 0
DWIDTH 14 0
BBX 14 14 0 -3
BITMAP
0000
0300
0300
0300
1FE0
1FE0
0300
0300
0300
1FE0
1FE0
0000
0000
0000
ENDCHAR
STARTCHAR char9
ENCODING 9
SWIDTH 923 0
DWIDTH 14 0
BBX 14 14 0 -3
BITMAP
0000
7380
7B80
7F80
7F80
77C0
73C0
01C0
01C0
01F8
01F8
0000
0000
0000
ENDCHAR
STARTCHAR char10
ENCODING 10
SWIDTH 923 0
DWIDTH 14 0
BBX 14 14 0 -3
BITMAP
0000
7380
7380
7380
3F00
1FF8
0FF8
00E0
00E0
00E0
00E0
0000
0000
0000
ENDCHAR
STARTCHAR char11
ENCODING 11
SWIDTH 923 0
DWIDTH 14 0
BBX 14 14 0 -3
BITMAP
0300
0300
0300
0300
0300
0300
FF00
FF00
0000
0000
0000
0000
0000
0000
ENDCHAR
STARTCHAR char12
ENCODING 12
SWIDTH 923 0
DWIDTH 14 0
BBX 14 14 0 -3
BITMAP
0000
0000
0000
0000
0000
0000
FF00
FF00
0300
0300
0300
0300
0300
0300
ENDCHAR
STARTCHAR char13
ENCODING 13
SWIDTH 923 0
DWIDTH 14 0
BBX 14 14 0 -3
BITMAP
0000
0000
0000
0000
0000
0000
03FC
03FC
0300
0300
0300
0300
0300
0300
ENDCHAR
STARTCHAR char14
ENCODING 14
SWIDTH 923 0
DWIDTH 14 0
BBX 14 14 0 -3
BITMAP
0300
0300
0300
0300
0300
0300
03FC
03FC
0000
0000
0000
0000
0000
0000
ENDCHAR
STARTCHAR char15
ENCODING 15
SWIDTH 923 0
DWIDTH 14 0
BBX 14 14 0 -3
BITMAP
0300
0300
0300
0300
0300
0300
FFFC
FFFC
0300
0300
0300
0300
0300
0300
ENDCHAR
STARTCHAR char16
ENCODING 16
SWIDTH 923 0
DWIDTH 14 0
BBX 14 14 0 -3
BITMAP
FFFC
FFFC
0000
0000
0000
0000
0000
0000
0000
0000
0000
0000
0000
0000
ENDCHAR
STARTCHAR char17
ENCODING 17
SWIDTH 923 0
DWIDTH 14 0
BBX 14 14 0 -3
BITMAP
0000
0000
0000
FFFC
FFFC
0000
0000
0000
0000
0000
0000
0000
0000
0000
ENDCHAR
STARTCHAR char18
ENCODING 18
SWIDTH 923 0
DWIDTH 14 0
BBX 14 14 0 -3
BITMAP
0000
0000
0000
0000
0000
0000
FFFC
FFFC
0000
0000
0000
0000
0000
0000
ENDCHAR
STARTCHAR char19
ENCODING 19
SWIDTH 923 0
DWIDTH 14 0
BBX 14 14 0 -3
BITMAP
0000
0000
0000
0000
0000
0000
0000
0000
0000
FFFC
FFFC
0000
0000
0000
ENDCHAR
STARTCHAR char20
ENCODING 20
SWIDTH 923 0
DWIDTH 14 0
BBX 14 14 0 -3
BITMAP
0000
0000
0000
0000
0000
0000
0000
0000
0000
0000
0000
0000
FFFC
FFFC
ENDCHAR
STARTCHAR char21
ENCODING 21
SWIDTH 923 0
DWIDTH 14 0
BBX 14 14 0 -3
BITMAP
0300
0300
0300
0300
0300
0300
03FC
03FC
0300
0300
0300
0300
0300
0300
ENDCHAR
STARTCHAR char22
ENCODING 22
SWIDTH 923 0
DWIDTH 14 0
BBX 14 14 0 -3
BITMAP
0300
0300
0300
0300
0300
0300
FF00
FF00
0300
0300
0300
0300
0300
0300
ENDCHAR
STARTCHAR char23
ENCODING 23
SWIDTH 923 0
DWIDTH 14 0
BBX 14 14 0 -3
BITMAP
0300
0300
0300
0300
0300
0300
FFFC
FFFC
0000
0000
0000
0000
0000
0000
ENDCHAR
STARTCHAR char24
ENCODING 24
SWIDTH 923 0
DWIDTH 14 0
BBX 14 14 0 -3
BITMAP
0000
0000
0000
0000
0000
0000
FFFC
FFFC
0300
0300
0300
0300
0300
0300
ENDCHAR
STARTCHAR char25
ENCODING 25
SWIDTH 923 0
DWIDTH 14 0
BBX 14 14 0 -3
BITMAP
0300
0300
0300
0300
0300
0300
0300
0300
0300
0300
0300
0300
0300
0300
ENDCHAR
STARTCHAR char26
ENCODING 26
SWIDTH 923 0
DWIDTH 14 0
BBX 14 14 0 -3
BITMAP
0000
0000
003C
01F0
0F80
7800
1F00
03E0
00F0
FFF0
FFF0
0000
0000
0000
ENDCHAR
STARTCHAR char27
ENCODING 27
SWIDTH 923 0
DWIDTH 14 0
BBX 14 14 0 -3
BITMAP
0000
0000
3C00
0F80
01F0
0078
03E0
1F00
F000
FFF0
FFF0
0000
0000
0000
ENDCHAR
STARTCHAR char28
ENCODING 28
SWIDTH 923 0
DWIDTH 14 0
BBX 14 14 0 -3
BITMAP
0000
0000
0000
0000
7FF8
7FF8
39C0
39C0
39C0
7380
7380
0000
0000
0000
ENDCHAR
STARTCHAR char29
ENCODING 29
SWIDTH 923 0
DWIDTH 14 0
BBX 14 14 0 -3
BITMAP
0000
0000
0000
0070
1FF8
1FF8
0380
0700
7FE0
7FE0
3800
0000
0000
0000
ENDCHAR
STARTCHAR char30
ENCODING 30
SWIDTH 923 0
DWIDTH 14 0
BBX 14 14 0 -3
BITMAP
0000
03F0
0738
0700
0E00
0E00
7FC0
1E00
3800
7EE0
77C0
0000
0000
0000
ENDCHAR
STARTCHAR char31
ENCODING 31
SWIDTH 923 0
DWIDTH 14 0
BBX 14 14 0 -3
BITMAP
0000
0000
0000
0000
0000
0000
0780
0780
0000
0000
0000
0000
0000
0000
ENDCHAR
STARTCHAR char32
ENCODING 32
SWIDTH 923 0
DWIDTH 14 0
BBX 14 14 0 -3
BITMAP
0000
0000
0000
0000
0000
0000
0000
0000
0000
0000
0000
0000
0000
0000
ENDCHAR
STARTCHAR char33
ENCODING 33
SWIDTH 923 0
DWIDTH 14 0
BBX 14 14 0 -3
BITMAP
0000
0380
0380
0380
0700
0700
0700
0700
0000
0E00
0E00
0000
0000
0000
ENDCHAR
STARTCHAR char34
ENCODING 34
SWIDTH 923 0
DWIDTH 14 0
BBX 14 14 0 -3
BITMAP
0000
0EE0
0EE0
1DC0
1980
0000
0000
0000
0000
0000
0000
0000
0000
0000
ENDCHAR
STARTCHAR char35
ENCODING 35
SWIDTH 923 0
DWIDTH 14 0
BBX 14 14 0 -3
BITMAP
0000
0E70
0E70
3FFC
7FF8
1CE0
1CE0
7FF8
FFF0
39C0
39C0
0000
0000
0000
ENDCHAR
STARTCHAR char36
ENCODING 36
SWIDTH 923 0
DWIDTH 14 0
BBX 14 14 0 -3
BITMAP
0000
0380
1FF0
3BB8
7700
3FE0
0770
7770
EEE0
7FC0
0E00
0000
0000
0000
ENDCHAR
STARTCHAR char37
ENCODING 37
SWIDTH 923 0
DWIDTH 14 0
BBX 14 14 0 -3
BITMAP
0000
181C
3C38
3C70
19E0
0380
0700
1EC0
39E0
71E0
E0C0
0000
0000
0000
ENDCHAR
STARTCHAR char38
ENCODING 38
SWIDTH 923 0
DWIDTH 14 0
BBX 14 14 0 -3
BITMAP
0000
0FC0
1CE0
1CE0
1DC0
1F00
0F80
3DF0
71C0
73E0
3F70
0000
0000
0000
ENDCHAR
STARTCHAR char39
ENCODING 39
SWIDTH 923 0
DWIDTH 14 0
BBX 14 14 0 -3
BITMAP
0000
0380
0380
0700
0600
0000
0000
0000
0000
0000
0000
0000
0000
0000
ENDCHAR
STARTCHAR char40
ENCODING 40
SWIDTH 923 0
DWIDTH 14 0
BBX 14 14 0 -3
BITMAP
0000
00E0
01C0
0380
0700
0E00
0E00
0E00
0E00
0E00
0700
0380
0000
0000
ENDCHAR
STARTCHAR char41
ENCODING 41
SWIDTH 923 0
DWIDTH 14 0
BBX 14 14 0 -3
BITMAP
0000
0700
0380
01C0
01C0
01C0
01C0
01C0
0380
0700
0E00
1C00
0000
0000
ENDCHAR
STARTCHAR char42
ENCODING 42
SWIDTH 923 0
DWIDTH 14 0
BBX 14 14 0 -3
BITMAP
0000
0000
0000
0380
1BB0
3FE0
0F80
3FE0
6EC0
0E00
0000
0000
0000
0000
ENDCHAR
STARTCHAR char43
ENCODING 43
SWIDTH 923 0
DWIDTH 14 0
BBX 14 14 0 -3
BITMAP
0000
0000
0000
0380
0380
0380
7FF0
7FF0
0E00
0E00
0E00
0000
0000
0000
ENDCHAR
STARTCHAR char44
ENCODING 44
SWIDTH 923 0
DWIDTH 14 0
BBX 14 14 0 -3
BITMAP
0000
0000
0000
0000
0000
0000
0000
0000
0380
0380
0700
0E00
0000
0000
ENDCHAR
STARTCHAR char45
ENCODING 45
SWIDTH 923 0
DWIDTH 14 0
BBX 14 14 0 -3
BITMAP
0000
0000
0000
0000
0000
0000
1FE0
1FE0
0000
0000
0000
0000
0000
0000
ENDCHAR
STARTCHAR char46
ENCODING 46
SWIDTH 923 0
DWIDTH 14 0
BBX 14 14 0 -3
BITMAP
0000
0000
0000
0000
0000
0000
0000
0000
0700
0700
0700
0000
0000
0000
ENDCHAR
STARTCHAR char47
ENCODING 47
SWIDTH 923 0
DWIDTH 14 0
BBX 14 14 0 -3
BITMAP
0000
001C
0038
0070
01E0
0380
0700
1E00
3800
7000
E000
0000
0000
0000
ENDCHAR
STARTCHAR char48
ENCODING 48
SWIDTH 923 0
DWIDTH 14 0
BBX 14 14 0 -3
BITMAP
0000
07E0
0FF0
1C38
3838
7338
7338
7070
70E0
3FC0
1F80
0000
0000
0000
ENDCHAR
STARTCHAR char49
ENCODING 49
SWIDTH 923 0
DWIDTH 14 0
BBX 14 14 0 -3
BITMAP
0000
03C0
07C0
0FC0
0380
0380
0380
0700
0700
7FF0
7FF0
0000
0000
0000
ENDCHAR
STARTCHAR char50
ENCODING 50
SWIDTH 923 0
DWIDTH 14 0
BBX 14 14 0 -3
BITMAP
0000
0FF0
1FF8
3838
0038
0070
01E0
0F80
3C00
7FF0
FFF0
0000
0000
0000
ENDCHAR
STARTCHAR char51
ENCODING 51
SWIDTH 923 0
DWIDTH 14 0
BBX 14 14 0 -3
BITMAP
0000
0FF0
1FF8
3838
0070
03E0
03E0
0070
E070
7FE0
3FC0
0000
0000
0000
ENDCHAR
STARTCHAR char52
ENCODING 52
SWIDTH 923 0
DWIDTH 14 0
BBX 14 14 0 -3
BITMAP
0000
0078
01F8
07B8
1E70
3070
7FF8
FFF0
00E0
00E0
00E0
0000
0000
0000
ENDCHAR
STARTCHAR char53
ENCODING 53
SWIDTH 923 0
DWIDTH 14 0
BBX 14 14 0 -3
BITMAP
0000
3FF8
3FF8
3800
7000
7FE0
7FF0
0038
C070
FFE0
7FC0
0000
0000
0000
ENDCHAR
STARTCHAR char54
ENCODING 54
SWIDTH 923 0
DWIDTH 14 0
BBX 14 14 0 -3
BITMAP
0000
0FF0
1FF8
3818
7000
7FE0
7FF0
E038
E070
7FE0
3FC0
0000
0000
0000
ENDCHAR
STARTCHAR char55
ENCODING 55
SWIDTH 923 0
DWIDTH 14 0
BBX 14 14 0 -3
BITMAP
0000
3FF8
3FF8
0070
01E0
0380
0700
1E00
3800
7000
E000
0000
0000
0000
ENDCHAR
STARTCHAR char56
ENCODING 56
SWIDTH 923 0
DWIDTH 14 0
BBX 14 14 0 -3
BITMAP
0000
0FF0
1FF8
3838
3870
1FE0
3FF0
7038
E070
7FE0
3FC0
0000
0000
0000
ENDCHAR
STARTCHAR char57
ENCODING 57
SWIDTH 923 0
DWIDTH 14 0
BBX 14 14 0 -3
BITMAP
0000
0FF0
1FF8
3838
3818
1FF8
0FF8
0038
7070
7FE0
3FC0
0000
0000
0000
ENDCHAR
STARTCHAR char58
ENCODING 58
SWIDTH 923 0
DWIDTH 14 0
BBX 14 14 0 -3
BITMAP
0000
0000
0000
0000
0380
0380
0380
0000
0700
0700
0700
0000
0000
0000
ENDCHAR
STARTCHAR char59
ENCODING 59
SWIDTH 923 0
DWIDTH 14 0
BBX 14 14 0 -3
BITMAP
0000
0000
0000
0000
01C0
01C0
01C0
0000
0380
0380
0700
0E00
0000
0000
ENDCHAR
STARTCHAR char60
ENCODING 60
SWIDTH 923 0
DWIDTH 14 0
BBX 14 14 0 -3
BITMAP
0000
0000
0038
00F0
07C0
1F00
7800
1E00
0F00
03C0
00E0
0000
0000
0000
ENDCHAR
STARTCHAR char61
ENCODING 61
SWIDTH 923 0
DWIDTH 14 0
BBX 14 14 0 -3
BITMAP
0000
0000
0000
0000
1FF8
1FF8
0000
0000
7FE0
7FE0
0000
0000
0000
0000
ENDCHAR
STARTCHAR char62
ENCODING 62
SWIDTH 923 0
DWIDTH 14 0
BBX 14 14 0 -3
BITMAP
0000
0000
1C00
0F00
03C0
01E0
0078
03E0
0F80
3C00
7000
0000
0000
0000
ENDCHAR
STARTCHAR char63
ENCODING 63
SWIDTH 923 0
DWIDTH 14 0
BBX 14 14 0 -3
BITMAP
0000
0FE0
1C70
3870
00E0
0380
0700
0700
0000
0E00
0E00
0000
0000
0000
ENDCHAR
STARTCHAR char64
ENCODING 64
SWIDTH 923 0
DWIDTH 14 0
BBX 14 14 0 -3
BITMAP
0000
07E0
0FF0
1C38
3B78
77F8
76F8
73F0
7000
3FC0
1FC0
0000
0000
0000
ENDCHAR
STARTCHAR char65
ENCODING 65
SWIDTH 923 0
DWIDTH 14 0
BBX 14 14 0 -3
BITMAP
0000
00C0
01E0
03F0
0E70
1C38
3FF8
3FF8
7038
7038
7038
0000
0000
0000
ENDCHAR
STARTCHAR char66
ENCODING 66
SWIDTH 923 0
DWIDTH 14 0
BBX 14 14 0 -3
BITMAP
0000
3FE0
3FF0
3838
7070
7FE0
7FF0
7038
E070
FFE0
FFC0
0000
0000
0000
ENDCHAR
STARTCHAR char67
ENCODING 67
SWIDTH 923 0
DWIDTH 14 0
BBX 14 14 0 -3
BITMAP
0000
0FE0
1FF0
3838
7000
E000
E000
E000
E0E0
7FC0
3F80
0000
0000
0000
ENDCHAR
STARTCHAR char68
ENCODING 68
SWIDTH 923 0
DWIDTH 14 0
BBX 14 14 0 -3
BITMAP
0000
3FE0
3FF0
3838
7038
7038
7038
7070
E0E0
FFC0
FF80
0000
0000
0000
ENDCHAR
STARTCHAR char69
ENCODING 69
SWIDTH 923 0
DWIDTH 14 0
BBX 14 14 0 -3
BITMAP
0000
3FFC
3FFC
3800
7000
7FC0
7FC0
7000
E000
FFF0
FFF0
0000
0000
0000
ENDCHAR
STARTCHAR char70
ENCODING 70
SWIDTH 923 0
DWIDTH 14 0
BBX 14 14 0 -3
BITMAP
0000
3FFC
3FFC
3800
7000
7FC0
7FC0
7000
E000
E000
E000
0000
0000
0000
ENDCHAR
STARTCHAR char71
ENCODING 71
SWIDTH 923 0
DWIDTH 14 0
BBX 14 14 0 -3
BITMAP
0000
0FE0
1FF0
3838
7000
E000
E3F0
E3F0
E0E0
7FE0
3FA0
0000
0000
0000
ENDCHAR
STARTCHAR char72
ENCODING 72
SWIDTH 923 0
DWIDTH 14 0
BBX 14 14 0 -3
BITMAP
0000
381C
381C
381C
7038
7FF8
7FF8
7038
E070
E070
E070
0000
0000
0000
ENDCHAR
STARTCHAR char73
ENCODING 73
SWIDTH 923 0
DWIDTH 14 0
BBX 14 14 0 -3
BITMAP
0000
1FF0
1FF0
0380
0700
0700
0700
0700
0E00
7FC0
7FC0
0000
0000
0000
ENDCHAR
STARTCHAR char74
ENCODING 74
SWIDTH 923 0
DWIDTH 14 0
BBX 14 14 0 -3
BITMAP
0000
03F8
03F8
00E0
00E0
01C0
01C0
71C0
E380
7F00
3E00
0000
0000
0000
ENDCHAR
STARTCHAR char75
ENCODING 75
SWIDTH 923 0
DWIDTH 14 0
BBX 14 14 0 -3
BITMAP
0000
1C38
1C70
1CE0
3BC0
3F00
3F00
3B80
7380
71C0
70E0
0000
0000
0000
ENDCHAR
STARTCHAR char76
ENCODING 76
SWIDTH 923 0
DWIDTH 14 0
BBX 14 14 0 -3
BITMAP
0000
1C00
1C00
1C00
3800
3800
3800
3800
7000
7FF8
7FF8
0000
0000
0000
ENDCHAR
STARTCHAR char77
ENCODING 77
SWIDTH 923 0
DWIDTH 14 0
BBX 14 14 0 -3
BITMAP
0000
300C
381C
3C3C
7CF8
7FF8
77B8
7338
E070
E070
E070
0000
0000
0000
ENDCHAR
STARTCHAR char78
ENCODING 78
SWIDTH 923 0
DWIDTH 14 0
BBX 14 14 0 -3
BITMAP
0000
381C
3C1C
3E1C
7E38
7738
73B8
71F8
E1F0
E0F0
E070
0000
0000
0000
ENDCHAR
STARTCHAR char79
ENCODING 79
SWIDTH 923 0
DWIDTH 14 0
BBX 14 14 0 -3
BITMAP
0000
0FF0
1FF8
3838
7038
7038
7038
7038
7070
7FE0
3FC0
0000
0000
0000
ENDCHAR
STARTCHAR char80
ENCODING 80
SWIDTH 923 0
DWIDTH 14 0
BBX 14 14 0 -3
BITMAP
0000
3FF0
3FF8
3838
7038
7070
7FE0
7FC0
E000
E000
E000
0000
0000
0000
ENDCHAR
STARTCHAR char81
ENCODING 81
SWIDTH 923 0
DWIDTH 14 0
BBX 14 14 0 -3
BITMAP
0000
0FF0
1FF8
3838
7038
7038
7038
71F8
71F0
7FE0
3FE0
0070
0000
0000
ENDCHAR
STARTCHAR char82
ENCODING 82
SWIDTH 923 0
DWIDTH 14 0
BBX 14 14 0 -3
BITMAP
0000
3FF0
3FF8
3838
7038
7070
7FE0
7FC0
E1C0
E0E0
E070
0000
0000
0000
ENDCHAR
STARTCHAR char83
ENCODING 83
SWIDTH 923 0
DWIDTH 14 0
BBX 14 14 0 -3
BITMAP
0000
0FF0
1FF8
381C
3800
1FE0
0FF0
0038
E070
7FE0
3FC0
0000
0000
0000
ENDCHAR
STARTCHAR char84
ENCODING 84
SWIDTH 923 0
DWIDTH 14 0
BBX 14 14 0 -3
BITMAP
0000
7FF0
7FF0
0700
0E00
0E00
0E00
0E00
1C00
1C00
1C00
0000
0000
0000
ENDCHAR
STARTCHAR char85
ENCODING 85
SWIDTH 923 0
DWIDTH 14 0
BBX 14 14 0 -3
BITMAP
0000
381C
381C
381C
7038
7038
7038
7038
7070
7FE0
3FC0
0000
0000
0000
ENDCHAR
STARTCHAR char86
ENCODING 86
SWIDTH 923 0
DWIDTH 14 0
BBX 14 14 0 -3
BITMAP
0000
7038
7038
7070
70E0
39C0
39C0
1F80
1E00
1E00
0C00
0000
0000
0000
ENDCHAR
STARTCHAR char87
ENCODING 87
SWIDTH 923 0
DWIDTH 14 0
BBX 14 14 0 -3
BITMAP
0000
7038
7038
7338
7770
7FE0
7FE0
7FE0
7380
7380
6180
0000
0000
0000
ENDCHAR
STARTCHAR char88
ENCODING 88
SWIDTH 923 0
DWIDTH 14 0
BBX 14 14 0 -3
BITMAP
0000
381C
1C38
0E70
0FE0
0780
0780
1FC0
39C0
70E0
E070
0000
0000
0000
ENDCHAR
STARTCHAR char89
ENCODING 89
SWIDTH 923 0
DWIDTH 14 0
BBX 14 14 0 -3
BITMAP
0000
3018
3838
1C70
1DE0
0F80
0700
0700
0E00
0E00
0E00
0000
0000
0000
ENDCHAR
STARTCHAR char90
ENCODING 90
SWIDTH 923 0
DWIDTH 14 0
BBX 14 14 0 -3
BITMAP
0000
3FFC
3FF8
0070
01E0
0380
0700
1E00
3800
7FF0
FFF0
0000
0000
0000
ENDCHAR
STARTCHAR char91
ENCODING 91
SWIDTH 923 0
DWIDTH 14 0
BBX 14 14 0 -3
BITMAP
0000
07E0
07E0
0700
0700
0E00
0E00
0E00
1C00
1C00
1F80
1F80
0000
0000
ENDCHAR
STARTCHAR char92
ENCODING 92
SWIDTH 923 0
DWIDTH 14 0
BBX 14 14 0 -3
BITMAP
0000
3800
1C00
0E00
0E00
0700
0380
01C0
01C0
00E0
0070
0000
0000
0000
ENDCHAR
STARTCHAR char93
ENCODING 93
SWIDTH 923 0
DWIDTH 14 0
BBX 14 14 0 -3
BITMAP
0000
07E0
07E0
00E0
00E0
01C0
01C0
01C0
0380
0380
1F80
1F80
0000
0000
ENDCHAR
STARTCHAR char94
ENCODING 94
SWIDTH 923 0
DWIDTH 14 0
BBX 14 14 0 -3
BITMAP
0000
0380
07C0
1EE0
38E0
7070
0000
0000
0000
0000
0000
0000
0000
0000
ENDCHAR
STARTCHAR char95
ENCODING 95
SWIDTH 923 0
DWIDTH 14 0
BBX 14 14 0 -3
BITMAP
0000
0000
0000
0000
0000
0000
0000
0000
0000
0000
0000
7FF8
0000
0000
ENDCHAR
STARTCHAR char96
ENCODING 96
SWIDTH 923 0
DWIDTH 14 0
BBX 14 14 0 -3
BITMAP
0000
0700
0700
0380
0000
0000
0000
0000
0000
0000
0000
0000
0000
0000
ENDCHAR
STARTCHAR char97
ENCODING 97
SWIDTH 923 0
DWIDTH 14 0
BBX 14 14 0 -3
BITMAP
0000
0000
0000
0000
0FF0
1C38
0038
3FF8
7038
7070
7FB0
0000
0000
0000
ENDCHAR
STARTCHAR char98
ENCODING 98
SWIDTH 923 0
DWIDTH 14 0
BBX 14 14 0 -3
BITMAP
0000
3800
3800
3800
7FE0
7870
7038
7038
E070
F0E0
DFC0
0000
0000
0000
ENDCHAR
STARTCHAR char99
ENCODING 99
SWIDTH 923 0
DWIDTH 14 0
BBX 14 14 0 -3
BITMAP
0000
0000
0000
0000
1FF0
3838
7000
E000
E000
E0E0
7FC0
0000
0000
0000
ENDCHAR
STARTCHAR char100
ENCODING 100
SWIDTH 923 0
DWIDTH 14 0
BBX 14 14 0 -3
BITMAP
0000
0038
0038
0038
3FF0
70F0
E070
E070
E0E0
E1E0
7F60
0000
0000
0000
ENDCHAR
STARTCHAR char101
ENCODING 101
SWIDTH 923 0
DWIDTH 14 0
BBX 14 14 0 -3
BITMAP
0000
0000
0000
0000
0FF0
1C38
3838
7FF8
7000
7070
3FE0
0000
0000
0000
ENDCHAR
STARTCHAR char102
ENCODING 102
SWIDTH 923 0
DWIDTH 14 0
BBX 14 14 0 -3
BITMAP
0000
03F0
0738
0700
0E00
7FC0
0E00
0E00
1C00
1C00
1C00
0000
0000
0000
ENDCHAR
STARTCHAR char103
ENCODING 103
SWIDTH 923 0
DWIDTH 14 0
BBX 14 14 0 -3
BITMAP
0000
0000
0000
0000
1FD8
3878
7038
E070
E070
7070
3FF0
00E0
E0E0
7FC0
ENDCHAR
STARTCHAR char104
ENCODING 104
SWIDTH 923 0
DWIDTH 14 0
BBX 14 14 0 -3
BITMAP
0000
3800
3800
3800
3FE0
7870
7038
7038
E070
E070
E070
0000
0000
0000
ENDCHAR
STARTCHAR char105
ENCODING 105
SWIDTH 923 0
DWIDTH 14 0
BBX 14 14 0 -3
BITMAP
0000
01C0
01C0
0000
0F80
0380
0380
0380
0700
0700
3FE0
0000
0000
0000
ENDCHAR
STARTCHAR char106
ENCODING 106
SWIDTH 923 0
DWIDTH 14 0
BBX 14 14 0 -3
BITMAP
0000
0070
0070
0000
03E0
00E0
00E0
00E0
01C0
01C0
01C0
7380
7700
3E00
ENDCHAR
STARTCHAR char107
ENCODING 107
SWIDTH 923 0
DWIDTH 14 0
BBX 14 14 0 -3
BITMAP
0000
0E00
0E00
0E00
1C70
1CE0
1DC0
1F80
3F80
3DC0
38E0
0000
0000
0000
ENDCHAR
STARTCHAR char108
ENCODING 108
SWIDTH 923 0
DWIDTH 14 0
BBX 14 14 0 -3
BITMAP
0000
07C0
01C0
01C0
0380
0380
0380
0380
0700
0700
3FE0
0000
0000
0000
ENDCHAR
STARTCHAR char109
ENCODING 109
SWIDTH 923 0
DWIDTH 14 0
BBX 14 14 0 -3
BITMAP
0000
0000
0000
0000
3738
3FFC
739C
739C
739C
E738
E738
0000
0000
0000
ENDCHAR
STARTCHAR char110
ENCODING 110
SWIDTH 923 0
DWIDTH 14 0
BBX 14 14 0 -3
BITMAP
0000
0000
0000
0000
37F0
3C38
7038
7038
7038
E070
E070
0000
0000
0000
ENDCHAR
STARTCHAR char111
ENCODING 111
SWIDTH 923 0
DWIDTH 14 0
BBX 14 14 0 -3
BITMAP
0000
0000
0000
0000
0FF0
1C38
3838
7038
7070
70E0
3FC0
0000
0000
0000
ENDCHAR
STARTCHAR char112
ENCODING 112
SWIDTH 923 0
DWIDTH 14 0
BBX 14 14 0 -3
BITMAP
0000
0000
0000
0000
37F0
3C38
3838
7038
7038
7870
7FE0
E000
E000
E000
ENDCHAR
STARTCHAR char113
ENCODING 113
SWIDTH 923 0
DWIDTH 14 0
BBX 14 14 0 -3
BITMAP
0000
0000
0000
0000
1FD8
3878
7038
E070
E070
70F0
3FF0
00E0
00E0
00E0
ENDCHAR
STARTCHAR char114
ENCODING 114
SWIDTH 923 0
DWIDTH 14 0
BBX 14 14 0 -3
BITMAP
0000
0000
0000
0000
37E0
1E70
3830
3800
3800
7000
7000
0000
0000
0000
ENDCHAR
STARTCHAR char115
ENCODING 115
SWIDTH 923 0
DWIDTH 14 0
BBX 14 14 0 -3
BITMAP
0000
0000
0000
0000
1FF0
3838
7000
3FE0
0070
E0E0
7FC0
0000
0000
0000
ENDCHAR
STARTCHAR char116
ENCODING 116
SWIDTH 923 0
DWIDTH 14 0
BBX 14 14 0 -3
BITMAP
0000
0380
0380
0380
3FF0
0700
0700
0700
0E00
0E70
07E0
0000
0000
0000
ENDCHAR
STARTCHAR char117
ENCODING 117
SWIDTH 923 0
DWIDTH 14 0
BBX 14 14 0 -3
BITMAP
0000
0000
0000
0000
7038
7038
E070
E070
E0E0
E1E0
7F60
0000
0000
0000
ENDCHAR
STARTCHAR char118
ENCODING 118
SWIDTH 923 0
DWIDTH 14 0
BBX 14 14 0 -3
BITMAP
0000
0000
0000
0000
7038
7070
70E0
39C0
1F80
1E00
0C00
0000
0000
0000
ENDCHAR
STARTCHAR char119
ENCODING 119
SWIDTH 923 0
DWIDTH 14 0
BBX 14 14 0 -3
BITMAP
0000
0000
0000
0000
7038
7238
7770
7FE0
7FE0
73C0
6180
0000
0000
0000
ENDCHAR
STARTCHAR char120
ENCODING 120
SWIDTH 923 0
DWIDTH 14 0
BBX 14 14 0 -3
BITMAP
0000
0000
0000
0000
381C
1E78
0FE0
0780
1FC0
79E0
E070
0000
0000
0000
ENDCHAR
STARTCHAR char121
ENCODING 121
SWIDTH 923 0
DWIDTH 14 0
BBX 14 14 0 -3
BITMAP
0000
0000
0000
0000
7038
7038
7038
E070
E070
70F0
3FE0
00E0
E1C0
7F80
ENDCHAR
STARTCHAR char122
ENCODING 122
SWIDTH 923 0
DWIDTH 14 0
BBX 14 14 0 -3
BITMAP
0000
0000
0000
0000
3FF8
0070
03E0
0F80
3E00
7000
FFE0
0000
0000
0000
ENDCHAR
STARTCHAR char123
ENCODING 123
SWIDTH 923 0
DWIDTH 14 0
BBX 14 14 0 -3
BITMAP
0000
01E0
0380
0700
0700
0700
0E00
0700
0E00
0E00
0E00
0780
0000
0000
ENDCHAR
STARTCHAR char124
ENCODING 124
SWIDTH 923 0
DWIDTH 14 0
BBX 14 14 0 -3
BITMAP
0000
0380
0380
0380
0380
0700
0700
0700
0E00
0E00
0E00
0E00
0000
0000
ENDCHAR
STARTCHAR char125
ENCODING 125
SWIDTH 923 0
DWIDTH 14 0
BBX 14 14 0 -3
BITMAP
0000
0780
01C0
01C0
01C0
0380
01C0
0380
0380
0380
0700
1E00
0000
0000
ENDCHAR
STARTCHAR char126
ENCODING 126
SWIDTH 923 0
DWIDTH 14 0
BBX 14 14 0 -3
BITMAP
0000
0000
0000
0000
0000
0F0C
3F38
73F0
C3C0
0000
0000
0000
0000
0000
ENDCHAR
STARTCHAR char127
ENCODING 127
SWIDTH 923 0
DWIDTH 14 0
BBX 14 14 0 -3
BITMAP
0000
0000
0000
0000
0000
0000
0000
0000
0000
0000
0000
0000
0000
0000
ENDCHAR
STARTCHAR char133
ENCODING 133
SWIDTH 923 0
DWIDTH 14 0
BBX 14 14 0 -3
BITMAP
0000
0000
0000
0000
0000
0000
0000
0000
7770
7770
7770
0000
0000
0000
ENDCHAR
STARTCHAR char136
ENCODING 136
SWIDTH 923 0
DWIDTH 14 0
BBX 14 14 0 -3
BITMAP
0780
0FC0
1CE0
3870
0000
0000
0000
0000
0000
0000
0000
0000
0000
0000
ENDCHAR
STARTCHAR char171
ENCODING 139
SWIDTH 923 0
DWIDTH 14 0
BBX 14 14 0 -3
BITMAP
0000
0000
0000
0000
01C0
0380
0700
0E00
0700
0380
01C0
0000
0000
0000
ENDCHAR
STARTCHAR char97
ENCODING 140
SWIDTH 923 0
DWIDTH 14 0
BBX 14 14 0 -3
BITMAP
0000
0000
0000
0000
3DF0
77B8
7338
73F0
7300
77B8
3DF0
0000
0000
0000
ENDCHAR
STARTCHAR char140
ENCODING 155
SWIDTH 923 0
DWIDTH 14 0
BBX 14 14 0 -3
BITMAP
0000
0000
0000
0000
0E00
0700
0380
01C0
0380
0700
0E00
0000
0000
0000
ENDCHAR
STARTCHAR char160
ENCODING 160
SWIDTH 923 0
DWIDTH 14 0
BBX 14 14 0 -3
BITMAP
0000
0000
0000
0000
0000
0000
0000
0000
0000
0000
0000
0000
0000
0000
ENDCHAR
STARTCHAR char33
ENCODING 161
SWIDTH 923 0
DWIDTH 14 0
BBX 14 14 0 -3
BITMAP
0000
0700
0700
0000
0700
0700
0700
0700
0700
0700
0700
0000
0000
0000
ENDCHAR
STARTCHAR char30
ENCODING 163
SWIDTH 923 0
DWIDTH 14 0
BBX 14 14 0 -3
BITMAP
0000
07E0
0E70
1C00
1C00
0E00
7FC0
0E00
1C00
3F70
3BE0
0000
0000
0000
ENDCHAR
STARTCHAR char124
ENCODING 166
SWIDTH 923 0
DWIDTH 14 0
BBX 14 14 0 -3
BITMAP
0000
0700
0700
0700
0700
0700
0000
0700
0700
0700
0700
0700
0000
0000
ENDCHAR
STARTCHAR cloud
ENCODING 167
SWIDTH 923 0
DWIDTH 14 0
BBX 14 14 0 -3
BITMAP
0000
0FE0
1FF0
0E38
1F80
39C0
1CE0
0E70
07E0
71C0
3FE0
1FC0
0000
0000
ENDCHAR
STARTCHAR char168
ENCODING 168
SWIDTH 923 0
DWIDTH 14 0
BBX 14 14 0 -3
BITMAP
1DC0
1DC0
1DC0
0000
0000
0000
0000
0000
0000
0000
0000
0000
0000
0000
ENDCHAR
STARTCHAR teleporter
ENCODING 169
SWIDTH 923 0
DWIDTH 14 0
BBX 14 14 0 -3
BITMAP
0000
0000
0FC0
1FE0
3FF0
3CF0
3BF0
3BF0
3CF0
3FF0
1FE0
0FC0
0000
0000
ENDCHAR
STARTCHAR char171
ENCODING 171
SWIDTH 923 0
DWIDTH 14 0
BBX 14 14 0 -3
BITMAP
0000
0000
0000
0000
0770
0EE0
1DC0
3B80
1DC0
0EE0
0770
0000
0000
0000
ENDCHAR
STARTCHAR char169
ENCODING 174
SWIDTH 923 0
DWIDTH 14 0
BBX 14 14 0 -3
BITMAP
0000
0000
0FC0
1FE0
3FF0
38F0
3B70
38F0
3B70
3FF0
1FE0
0FC0
0000
0000
ENDCHAR
STARTCHAR char7
ENCODING 176
SWIDTH 923 0
DWIDTH 14 0
BBX 14 14 0 -3
BITMAP
0300
0780
0CC0
0CC0
0780
0300
0000
0000
0000
0000
0000
0000
0000
0000
ENDCHAR
STARTCHAR char8
ENCODING 177
SWIDTH 923 0
DWIDTH 14 0
BBX 14 14 0 -3
BITMAP
0000
0300
0300
0300
1FE0
1FE0
0300
0300
0300
1FE0
1FE0
0000
0000
0000
ENDCHAR
STARTCHAR char178
ENCODING 178
SWIDTH 923 0
DWIDTH 14 0
BBX 14 14 0 -3
BITMAP
0780
0CC0
0180
0300
0600
0FC0
0000
0000
0000
0000
0000
0000
0000
0000
ENDCHAR
STARTCHAR char179
ENCODING 179
SWIDTH 923 0
DWIDTH 14 0
BBX 14 14 0 -3
BITMAP
0780
00C0
0380
00C0
00C0
0780
0000
0000
0000
0000
0000
0000
0000
0000
ENDCHAR
STARTCHAR char180
ENCODING 180
SWIDTH 923 0
DWIDTH 14 0
BBX 14 14 0 -3
BITMAP
01C0
0380
0700
0000
0000
0000
0000
0000
0000
0000
0000
0000
0000
0000
ENDCHAR
STARTCHAR char183
ENCODING 183
SWIDTH 923 0
DWIDTH 14 0
BBX 14 14 0 -3
BITMAP
0000
0000
0000
0000
0000
0700
0700
0700
0000
0000
0000
0000
0000
0000
ENDCHAR
STARTCHAR char185
ENCODING 185
SWIDTH 923 0
DWIDTH 14 0
BBX 14 14 0 -3
BITMAP
0700
0F00
0300
0300
0300
0FC0
0000
0000
0000
0000
0000
0000
0000
0000
ENDCHAR
STARTCHAR char7
ENCODING 186
SWIDTH 923 0
DWIDTH 14 0
BBX 14 14 0 -3
BITMAP
0780
0CC0
0CC0
0CC0
0CC0
0780
0000
0000
0000
0000
0000
0000
0000
0000
ENDCHAR
STARTCHAR char171
ENCODING 187
SWIDTH 923 0
DWIDTH 14 0
BBX 14 14 0 -3
BITMAP
0000
0000
0000
0000
3B80
1DC0
0EE0
0770
0EE0
1DC0
3B80
0000
0000
0000
ENDCHAR
STARTCHAR char47
ENCODING 188
SWIDTH 923 0
DWIDTH 14 0
BBX 14 14 0 -3
BITMAP
0000
7038
3070
30E0
31C0
33B0
7F70
0ED0
1DF8
3830
7030
0000
0000
0000
ENDCHAR
STARTCHAR char189
ENCODING 189
SWIDTH 923 0
DWIDTH 14 0
BBX 14 14 0 -3
BITMAP
0000
7038
3070
30E0
31C0
33F0
7FD8
0E18
1C30
3860
70F8
0000
0000
0000
ENDCHAR
STARTCHAR char190
ENCODING 190
SWIDTH 923 0
DWIDTH 14 0
BBX 14 14 0 -3
BITMAP
0000
3838
6C70
18E0
0DC0
6FB0
3F70
0ED0
1DF8
3830
7030
0000
0000
0000
ENDCHAR
STARTCHAR char63
ENCODING 191
SWIDTH 923 0
DWIDTH 14 0
BBX 14 14 0 -3
BITMAP
0000
0700
0700
0000
0700
0700
0E00
3800
7070
38E0
1FC0
0000
0000
0000
ENDCHAR
STARTCHAR char65
ENCODING 192
SWIDTH 923 0
DWIDTH 14 0
BBX 14 14 0 -3
BITMAP
0E00
0700
0000
0780
0FC0
1CE0
3870
7FF8
7038
7038
7038
0000
0000
0000
ENDCHAR
STARTCHAR char193
ENCODING 193
SWIDTH 923 0
DWIDTH 14 0
BBX 14 14 0 -3
BITMAP
01C0
0380
0000
0780
0FC0
1CE0
3870
7FF8
7038
7038
7038
0020
0000
0000
ENDCHAR
STARTCHAR char194
ENCODING 194
SWIDTH 923 0
DWIDTH 14 0
BBX 14 14 0 -3
BITMAP
0300
0480
0000
0780
0FC0
1CE0
3870
7FF8
7038
7038
7038
0000
0000
0000
ENDCHAR
STARTCHAR char195
ENCODING 195
SWIDTH 923 0
DWIDTH 14 0
BBX 14 14 0 -3
BITMAP
0660
1980
0000
0780
0FC0
1CE0
3870
7FF8
7038
7038
7038
0000
0000
0000
ENDCHAR
STARTCHAR char196
ENCODING 196
SWIDTH 923 0
DWIDTH 14 0
BBX 14 14 0 -3
BITMAP
0CC0
0CC0
0000
0780
0FC0
1CE0
3870
7FF8
7038
7038
7038
0000
0000
0000
ENDCHAR
STARTCHAR char197
ENCODING 197
SWIDTH 923 0
DWIDTH 14 0
BBX 14 14 0 -3
BITMAP
0300
0480
0480
0780
0FC0
1CE0
3870
7FF8
7038
7038
7038
0000
0000
0000
ENDCHAR
STARTCHAR char198
ENCODING 198
SWIDTH 923 0
DWIDTH 14 0
BBX 14 14 0 -3
BITMAP
0000
03F8
07F8
0FC0
1DC0
39F0
7FF0
7FC0
71C0
71F8
71F8
0000
0000
0000
ENDCHAR
STARTCHAR char67
ENCODING 199
SWIDTH 923 0
DWIDTH 14 0
BBX 14 14 0 -3
BITMAP
0000
1FE0
3FF0
7038
7000
7000
7000
7000
7038
3FF0
1FE0
01C0
0CE0
07C0
ENDCHAR
STARTCHAR char69
ENCODING 200
SWIDTH 923 0
DWIDTH 14 0
BBX 14 14 0 -3
BITMAP
0E00
0700
0000
7FF8
7FF8
7000
7FC0
7FC0
7000
7FF8
7FF8
0000
0000
0000
ENDCHAR
STARTCHAR char201
ENCODING 201
SWIDTH 923 0
DWIDTH 14 0
BBX 14 14 0 -3
BITMAP
0380
0700
0000
7FF8
7FF8
7000
7FC0
7FC0
7000
7FF8
7FF8
0000
0000
0000
ENDCHAR
STARTCHAR char202
ENCODING 202
SWIDTH 923 0
DWIDTH 14 0
BBX 14 14 0 -3
BITMAP
0700
0D80
0000
7FF8
7FF8
6000
7FC0
7FC0
6000
7FF8
7FF8
0000
0000
0000
ENDCHAR
STARTCHAR char203
ENCODING 203
SWIDTH 923 0
DWIDTH 14 0
BBX 14 14 0 -3
BITMAP
0CC0
0CC0
0000
7FF8
7FF8
6000
7FC0
7FC0
6000
7FF8
7FF8
0000
0000
0000
ENDCHAR
STARTCHAR char73
ENCODING 204
SWIDTH 923 0
DWIDTH 14 0
BBX 14 14 0 -3
BITMAP
0E00
0700
0000
3FE0
3FE0
0700
0700
0700
0700
3FE0
3FE0
0000
0000
0000
ENDCHAR
STARTCHAR char205
ENCODING 205
SWIDTH 923 0
DWIDTH 14 0
BBX 14 14 0 -3
BITMAP
0380
0700
0000
3FE0
3FE0
0700
0700
0700
0700
3FE0
3FE0
0000
0000
0000
ENDCHAR
STARTCHAR char206
ENCODING 206
SWIDTH 923 0
DWIDTH 14 0
BBX 14 14 0 -3
BITMAP
0700
0D80
0000
3FE0
3FE0
0700
0700
0700
0700
3FE0
3FE0
0000
0000
0000
ENDCHAR
STARTCHAR char207
ENCODING 207
SWIDTH 923 0
DWIDTH 14 0
BBX 14 14 0 -3
BITMAP
0D80
0D80
0000
3FE0
3FE0
0700
0700
0700
0700
3FE0
3FE0
0000
0000
0000
ENDCHAR
STARTCHAR char68
ENCODING 208
SWIDTH 923 0
DWIDTH 14 0
BBX 14 14 0 -3
BITMAP
0000
3FC0
38E0
3870
3838
7F38
7F38
3838
3870
38E0
3FC0
0000
0000
0000
ENDCHAR
STARTCHAR char78
ENCODING 209
SWIDTH 923 0
DWIDTH 14 0
BBX 14 14 0 -3
BITMAP
0660
1980
0000
7C38
7E38
7738
73B8
71F8
70F8
7078
7038
0000
0000
0000
ENDCHAR
STARTCHAR char79
ENCODING 210
SWIDTH 923 0
DWIDTH 14 0
BBX 14 14 0 -3
BITMAP
0E00
0700
0000
1FE0
3FF0
7038
7038
7038
7038
3FF0
1FE0
0000
0000
0000
ENDCHAR
STARTCHAR char79
ENCODING 211
SWIDTH 923 0
DWIDTH 14 0
BBX 14 14 0 -3
BITMAP
01C0
0380
0000
1FE0
3FF0
7038
7038
7038
7038
3FF0
1FE0
0000
0000
0000
ENDCHAR
STARTCHAR char79
ENCODING 212
SWIDTH 923 0
DWIDTH 14 0
BBX 14 14 0 -3
BITMAP
0300
0480
0000
1FE0
3FF0
7038
7038
7038
7038
3FF0
1FE0
0000
0000
0000
ENDCHAR
STARTCHAR char79
ENCODING 213
SWIDTH 923 0
DWIDTH 14 0
BBX 14 14 0 -3
BITMAP
0660
1980
0000
1FE0
3FF0
7038
7038
7038
7038
3FF0
1FE0
0000
0000
0000
ENDCHAR
STARTCHAR char79
ENCODING 214
SWIDTH 923 0
DWIDTH 14 0
BBX 14 14 0 -3
BITMAP
0CC0
0CC0
0000
1FE0
3FF0
7038
7038
7038
7038
3FF0
1FE0
0000
0000
0000
ENDCHAR
STARTCHAR char215
ENCODING 215
SWIDTH 923 0
DWIDTH 14 0
BBX 14 14 0 -3
BITMAP
0000
0000
0000
0000
38E0
1DC0
0F80
0700
0F80
1DC0
38E0
0000
0000
0000
ENDCHAR
STARTCHAR char79
ENCODING 216
SWIDTH 923 0
DWIDTH 14 0
BBX 14 14 0 -3
BITMAP
001C
1FF8
3FF0
70F8
71F8
73B8
7738
7E38
7C38
3FF0
7FE0
E000
0000
0000
ENDCHAR
STARTCHAR char85
ENCODING 217
SWIDTH 923 0
DWIDTH 14 0
BBX 14 14 0 -3
BITMAP
0600
0300
7038
7038
7038
7038
7038
7038
7038
3FF0
1FE0
0000
0000
0000
ENDCHAR
STARTCHAR char85
ENCODING 218
SWIDTH 923 0
DWIDTH 14 0
BBX 14 14 0 -3
BITMAP
0180
0300
7038
7038
7038
7038
7038
7038
7038
3FF0
1FE0
0000
0000
0000
ENDCHAR
STARTCHAR char85
ENCODING 219
SWIDTH 923 0
DWIDTH 14 0
BBX 14 14 0 -3
BITMAP
0300
0480
7038
7038
7038
7038
7038
7038
7038
3FF0
1FE0
0000
0000
0000
ENDCHAR
STARTCHAR char85
ENCODING 220
SWIDTH 923 0
DWIDTH 14 0
BBX 14 14 0 -3
BITMAP
0CC0
0CC0
7038
7038
7038
7038
7038
7038
7038
3FF0
1FE0
0000
0000
0000
ENDCHAR
STARTCHAR char89
ENCODING 221
SWIDTH 923 0
DWIDTH 14 0
BBX 14 14 0 -3
BITMAP
0380
0700
6030
7070
38E0
1DC0
0F80
0700
0700
0700
0700
0000
0000
0000
ENDCHAR
STARTCHAR char222
ENCODING 222
SWIDTH 923 0
DWIDTH 14 0
BBX 14 14 0 -3
BITMAP
0000
7000
7000
7FC0
7FE0
7070
7070
7FE0
7FC0
7000
7000
0000
0000
0000
ENDCHAR
STARTCHAR char66
ENCODING 223
SWIDTH 923 0
DWIDTH 14 0
BBX 14 14 0 -3
BITMAP
0000
0FC0
1FE0
3870
38E0
3BE0
3BF0
3838
3838
3BF0
3BE0
7000
0000
0000
ENDCHAR
STARTCHAR char97
ENCODING 224
SWIDTH 923 0
DWIDTH 14 0
BBX 14 14 0 -3
BITMAP
0000
0700
0380
0000
1FF0
3838
0038
3FF8
7038
7038
3FD8
0000
0000
0000
ENDCHAR
STARTCHAR char97
ENCODING 225
SWIDTH 923 0
DWIDTH 14 0
BBX 14 14 0 -3
BITMAP
0000
01C0
0380
0000
1FF0
3838
0038
3FF8
7038
7038
3FD8
0000
0000
0000
ENDCHAR
STARTCHAR char97
ENCODING 226
SWIDTH 923 0
DWIDTH 14 0
BBX 14 14 0 -3
BITMAP
0000
0380
06C0
0000
1FF0
3838
0038
3FF8
7038
7038
3FD8
0000
0000
0000
ENDCHAR
STARTCHAR char97
ENCODING 227
SWIDTH 923 0
DWIDTH 14 0
BBX 14 14 0 -3
BITMAP
0000
0330
0CC0
0000
1FF0
3838
0038
3FF8
7038
7038
3FD8
0000
0000
0000
ENDCHAR
STARTCHAR char97
ENCODING 228
SWIDTH 923 0
DWIDTH 14 0
BBX 14 14 0 -3
BITMAP
0000
06C0
06C0
0000
1FF0
3838
0038
3FF8
7038
7038
3FD8
0000
0000
0000
ENDCHAR
STARTCHAR char97
ENCODING 229
SWIDTH 923 0
DWIDTH 14 0
BBX 14 14 0 -3
BITMAP
0380
06C0
0380
0000
1FF0
3838
0038
3FF8
7038
7038
3FD8
0000
0000
0000
ENDCHAR
STARTCHAR char97
ENCODING 230
SWIDTH 923 0
DWIDTH 14 0
BBX 14 14 0 -3
BITMAP
0000
0000
0000
0000
1FF0
3B38
0338
3FF0
7300
7338
3FF0
0000
0000
0000
ENDCHAR
STARTCHAR char99
ENCODING 231
SWIDTH 923 0
DWIDTH 14 0
BBX 14 14 0 -3
BITMAP
0000
0000
0000
0000
1FF0
3838
7000
7000
7000
3838
1FF0
01C0
0CE0
07C0
ENDCHAR
STARTCHAR char101
ENCODING 232
SWIDTH 923 0
DWIDTH 14 0
BBX 14 14 0 -3
BITMAP
0000
0380
0700
0000
1FE0
3870
7038
7FF8
7000
3838
1FF0
0000
0000
0000
ENDCHAR
STARTCHAR char101
ENCODING 233
SWIDTH 923 0
DWIDTH 14 0
BBX 14 14 0 -3
BITMAP
0000
0700
0380
0000
1FE0
3870
7038
7FF8
7000
3838
1FF0
0000
0000
0000
ENDCHAR
STARTCHAR char101
ENCODING 234
SWIDTH 923 0
DWIDTH 14 0
BBX 14 14 0 -3
BITMAP
0000
0380
06C0
0000
1FE0
3870
7038
7FF8
7000
3838
1FF0
0000
0000
0000
ENDCHAR
STARTCHAR char101
ENCODING 235
SWIDTH 923 0
DWIDTH 14 0
BBX 14 14 0 -3
BITMAP
0000
0CC0
0CC0
0000
1FE0
3870
7038
7FF8
7000
3838
1FF0
0000
0000
0000
ENDCHAR
STARTCHAR char105
ENCODING 236
SWIDTH 923 0
DWIDTH 14 0
BBX 14 14 0 -3
BITMAP
1C00
0E00
0700
0000
1F00
0700
0700
0700
0700
0700
3FE0
0000
0000
0000
ENDCHAR
STARTCHAR char105
ENCODING 237
SWIDTH 923 0
DWIDTH 14 0
BBX 14 14 0 -3
BITMAP
01C0
0380
0700
0000
1F00
0700
0700
0700
0700
0700
3FE0
0000
0000
0000
ENDCHAR
STARTCHAR char105
ENCODING 238
SWIDTH 923 0
DWIDTH 14 0
BBX 14 14 0 -3
BITMAP
0000
0700
0D80
0000
1F00
0700
0700
0700
0700
0700
3FE0
0000
0000
0000
ENDCHAR
STARTCHAR char105
ENCODING 239
SWIDTH 923 0
DWIDTH 14 0
BBX 14 14 0 -3
BITMAP
0000
0D80
0D80
0000
1F00
0700
0700
0700
0700
0700
3FE0
0000
0000
0000
ENDCHAR
STARTCHAR char100
ENCODING 240
SWIDTH 923 0
DWIDTH 14 0
BBX 14 14 0 -3
BITMAP
0000
0EC0
0700
0F80
01C0
1FE0
3870
7038
7038
3870
1FE0
0000
0000
0000
ENDCHAR
STARTCHAR char110
ENCODING 241
SWIDTH 923 0
DWIDTH 14 0
BBX 14 14 0 -3
BITMAP
0000
0660
1980
0000
6FE0
7870
7038
7038
7038
7038
7038
0000
0000
0000
ENDCHAR
STARTCHAR char111
ENCODING 242
SWIDTH 923 0
DWIDTH 14 0
BBX 14 14 0 -3
BITMAP
0000
0600
0300
0000
1FE0
3FF0
7038
7038
7038
3FF0
1FE0
0000
0000
0000
ENDCHAR
STARTCHAR char111
ENCODING 243
SWIDTH 923 0
DWIDTH 14 0
BBX 14 14 0 -3
BITMAP
0000
0180
0300
0000
1FE0
3FF0
7038
7038
7038
3FF0
1FE0
0000
0000
0000
ENDCHAR
STARTCHAR char111
ENCODING 244
SWIDTH 923 0
DWIDTH 14 0
BBX 14 14 0 -3
BITMAP
0000
0300
0480
0000
1FE0
3FF0
7038
7038
7038
3FF0
1FE0
0000
0000
0000
ENDCHAR
STARTCHAR char111
ENCODING 245
SWIDTH 923 0
DWIDTH 14 0
BBX 14 14 0 -3
BITMAP
0000
0660
1980
0000
1FE0
3FF0
7038
7038
7038
3FF0
1FE0
0000
0000
0000
ENDCHAR
STARTCHAR char111
ENCODING 246
SWIDTH 923 0
DWIDTH 14 0
BBX 14 14 0 -3
BITMAP
0000
0CC0
0CC0
0000
1FE0
3FF0
7038
7038
7038
3FF0
1FE0
0000
0000
0000
ENDCHAR
STARTCHAR item_skeleton, fired_burst
ENCODING 247
SWIDTH 923 0
DWIDTH 14 0
BBX 14 14 0 -3
BITMAP
0000
0000
0000
0300
0300
0000
1FE0
1FE0
0000
0300
0300
0000
0000
0000
ENDCHAR
STARTCHAR char111
ENCODING 248
SWIDTH 923 0
DWIDTH 14 0
BBX 14 14 0 -3
BITMAP
0000
0000
0000
0000
1FF8
3FF0
71F8
77B8
7E38
3FF0
7FE0
0000
0000
0000
ENDCHAR
STARTCHAR char117
ENCODING 249
SWIDTH 923 0
DWIDTH 14 0
BBX 14 14 0 -3
BITMAP
0000
0E00
0700
0380
7038
7038
7038
7038
7038
3878
1FD8
0000
0000
0000
ENDCHAR
STARTCHAR char117
ENCODING 250
SWIDTH 923 0
DWIDTH 14 0
BBX 14 14 0 -3
BITMAP
0000
01C0
0380
0700
7038
7038
7038
7038
7038
3878
1FD8
0000
0000
0000
ENDCHAR
STARTCHAR char117
ENCODING 251
SWIDTH 923 0
DWIDTH 14 0
BBX 14 14 0 -3
BITMAP
0000
0300
0780
0CC0
7038
7038
7038
7038
7038
3878
1FD8
0000
0000
0000
ENDCHAR
STARTCHAR char117
ENCODING 252
SWIDTH 923 0
DWIDTH 14 0
BBX 14 14 0 -3
BITMAP
0000
0CC0
0CC0
0000
7038
7038
7038
7038
7038
3878
1FD8
0000
0000
0000
ENDCHAR
STARTCHAR char121
ENCODING 253
SWIDTH 923 0
DWIDTH 14 0
BBX 14 14 0 -3
BITMAP
0000
01C0
0380
0700
7038
7038
7038
7038
7038
3838
1FF8
0038
3870
1FE0
ENDCHAR
STARTCHAR char254
ENCODING 254
SWIDTH 923 0
DWIDTH 14 0
BBX 14 14 0 -3
BITMAP
0000
7000
7000
7000
77C0
7CE0
7070
7038
7070
7CE0
77C0
7000
7000
7000
ENDCHAR
STARTCHAR char121
ENCODING 255
SWIDTH 923 0
DWIDTH 14 0
BBX 14 14 0 -3
BITMAP
0000
0CC0
0CC0
0000
7038
7038
7038
7038
7038
3838
1FF8
0038
3870
1FE0
ENDCHAR
STARTCHAR char97
ENCODING 257
SWIDTH 923 0
DWIDTH 14 0
BBX 14 14 0 -3
BITMAP
0000
0000
1FF0
0000
0FF0
1818
0018
1FF8
3018
3018
1FE8
0000
0000
0000
ENDCHAR
STARTCHAR char105
ENCODING 299
SWIDTH 923 0
DWIDTH 14 0
BBX 14 14 0 -3
BITMAP
0000
0000
0FC0
0000
0700
0300
0300
0300
0300
0300
1FE0
0000
0000
0000
ENDCHAR
STARTCHAR char108
ENCODING 322
SWIDTH 923 0
DWIDTH 14 0
BBX 14 14 0 -3
BITMAP
0000
0F00
0300
0300
0360
0380
0700
1B00
0300
0300
1FE0
0000
0000
0000
ENDCHAR
STARTCHAR char111
ENCODING 333
SWIDTH 923 0
DWIDTH 14 0
BBX 14 14 0 -3
BITMAP
0000
0000
3FF0
0000
1FE0
3030
6018
6018
6018
3030
1FE0
0000
0000
0000
ENDCHAR
STARTCHAR char102
ENCODING 383
SWIDTH 923 0
DWIDTH 14 0
BBX 14 14 0 -3
BITMAP
0000
0380
06C0
0600
0600
0E00
0600
0600
0600
0600
0600
0000
0000
0000
ENDCHAR
STARTCHAR char28
ENCODING 960
SWIDTH 923 0
DWIDTH 14 0
BBX 14 14 0 -3
BITMAP
0000
0000
0000
0000
7FF8
7FF8
1CE0
1CE0
1CE0
1CE0
1CE0
0000
0000
0000
ENDCHAR
STARTCHAR item_rune
ENCODING 966
SWIDTH 923 0
DWIDTH 14 0
BBX 14 14 0 -3
BITMAP
0000
0000
0000
0000
1DE0
3BF0
7738
7738
7738
3FF0
1FE0
0700
0700
0700
ENDCHAR
STARTCHAR char8208
ENCODING 8208
SWIDTH 923 0
DWIDTH 14 0
BBX 14 14 0 -3
BITMAP
0000
0000
0000
0000
0000
0000
0FC0
0000
0000
0000
0000
0000
0000
0000
ENDCHAR
STARTCHAR char8209
ENCODING 8209
SWIDTH 923 0
DWIDTH 14 0
BBX 14 14 0 -3
BITMAP
0000
0000
0000
0000
0000
0000
0FC0
0000
0000
0000
0000
0000
0000
0000
ENDCHAR
STARTCHAR char8210
ENCODING 8210
SWIDTH 923 0
DWIDTH 14 0
BBX 14 14 0 -3
BITMAP
0000
0000
0000
0000
0000
0000
1FE0
0000
0000
0000
0000
0000
0000
0000
ENDCHAR
STARTCHAR char8211
ENCODING 8211
SWIDTH 923 0
DWIDTH 14 0
BBX 14 14 0 -3
BITMAP
0000
0000
0000
0000
0000
0000
3FF0
0000
0000
0000
0000
0000
0000
0000
ENDCHAR
STARTCHAR char8212
ENCODING 8212
SWIDTH 923 0
DWIDTH 14 0
BBX 14 14 0 -3
BITMAP
0000
0000
0000
0000
0000
0000
7FF8
0000
0000
0000
0000
0000
0000
0000
ENDCHAR
STARTCHAR char8213
ENCODING 8213
SWIDTH 923 0
DWIDTH 14 0
BBX 14 14 0 -3
BITMAP
0000
0000
0000
0000
0000
0000
FFFC
0000
0000
0000
0000
0000
0000
0000
ENDCHAR
STARTCHAR char8216
ENCODING 8216
SWIDTH 923 0
DWIDTH 14 0
BBX 14 14 0 -3
BITMAP
0180
0300
0380
0380
0000
0000
0000
0000
0000
0000
0000
0000
0000
0000
ENDCHAR
STARTCHAR char8217
ENCODING 8217
SWIDTH 923 0
DWIDTH 14 0
BBX 14 14 0 -3
BITMAP
0700
0700
0300
0600
0000
0000
0000
0000
0000
0000
0000
0000
0000
0000
ENDCHAR
STARTCHAR char8220
ENCODING 8220
SWIDTH 923 0
DWIDTH 14 0
BBX 14 14 0 -3
BITMAP
0660
0CC0
0EE0
0EE0
0000
0000
0000
0000
0000
0000
0000
0000
0000
0000
ENDCHAR
STARTCHAR char8221
ENCODING 8221
SWIDTH 923 0
DWIDTH 14 0
BBX 14 14 0 -3
BITMAP
1DC0
1DC0
0CC0
1980
0000
0000
0000
0000
0000
0000
0000
0000
0000
0000
ENDCHAR
STARTCHAR item_corpse
ENCODING 8224
SWIDTH 923 0
DWIDTH 14 0
BBX 14 14 0 -3
BITMAP
0000
0000
0700
0700
0700
3FE0
3FE0
3FE0
0700
0700
0700
0700
0700
0000
ENDCHAR
STARTCHAR char1
ENCODING 8226
SWIDTH 923 0
DWIDTH 14 0
BBX 14 14 0 -3
BITMAP
0000
0000
0000
0000
0700
0F80
0F80
0F80
0700
0000
0000
0000
0000
0000
ENDCHAR
STARTCHAR item_missile
ENCODING 8227
SWIDTH 923 0
DWIDTH 14 0
BBX 14 14 0 -3
BITMAP
0000
0000
0800
0C00
3E00
1E00
0F00
0380
01C0
00C0
0020
0010
0000
0000
ENDCHAR
STARTCHAR char133
ENCODING 8230
SWIDTH 923 0
DWIDTH 14 0
BBX 14 14 0 -3
BITMAP
0000
0000
0000
0000
0000
0000
0000
0000
0000
3330
3330
0000
0000
0000
ENDCHAR
STARTCHAR char8242
ENCODING 8242
SWIDTH 923 0
DWIDTH 14 0
BBX 14 14 0 -3
BITMAP
0180
0300
0600
0400
0000
0000
0000
0000
0000
0000
0000
0000
0000
0000
ENDCHAR
STARTCHAR char8243
ENCODING 8243
SWIDTH 923 0
DWIDTH 14 0
BBX 14 14 0 -3
BITMAP
0660
0CC0
1980
1100
0000
0000
0000
0000
0000
0000
0000
0000
0000
0000
ENDCHAR
STARTCHAR char8244
ENCODING 8244
SWIDTH 923 0
DWIDTH 14 0
BBX 14 14 0 -3
BITMAP
0DB0
1B60
36C0
2480
0000
0000
0000
0000
0000
0000
0000
0000
0000
0000
ENDCHAR
STARTCHAR char8242
ENCODING 8245
SWIDTH 923 0
DWIDTH 14 0
BBX 14 14 0 -3
BITMAP
0600
0300
0180
0080
0000
0000
0000
0000
0000
0000
0000
0000
0000
0000
ENDCHAR
STARTCHAR char8243
ENCODING 8246
SWIDTH 923 0
DWIDTH 14 0
BBX 14 14 0 -3
BITMAP
1980
0CC0
0660
0220
0000
0000
0000
0000
0000
0000
0000
0000
0000
0000
ENDCHAR
STARTCHAR char8244
ENCODING 8247
SWIDTH 923 0
DWIDTH 14 0
BBX 14 14 0 -3
BITMAP
36C0
1B60
0DB0
0490
0000
0000
0000
0000
0000
0000
0000
0000
0000
0000
ENDCHAR
STARTCHAR char8592
ENCODING 8592
SWIDTH 923 0
DWIDTH 14 0
BBX 14 14 0 -3
BITMAP
0000
0000
0000
0E00
1C00
3800
7FF8
7FF8
3800
1C00
0E00
0000
0000
0000
ENDCHAR
STARTCHAR char8593
ENCODING 8593
SWIDTH 923 0
DWIDTH 14 0
BBX 14 14 0 -3
BITMAP
0000
0300
0780
0FC0
1FE0
1B60
1320
0300
0300
0300
0300
0300
0300
0000
ENDCHAR
STARTCHAR char8594
ENCODING 8594
SWIDTH 923 0
DWIDTH 14 0
BBX 14 14 0 -3
BITMAP
0000
0000
0000
01C0
00E0
0070
7FF8
7FF8
0070
00E0
01C0
0000
0000
0000
ENDCHAR
STARTCHAR char8595
ENCODING 8595
SWIDTH 923 0
DWIDTH 14 0
BBX 14 14 0 -3
BITMAP
0000
0300
0300
0300
0300
0300
0300
1320
1B60
1FE0
0FC0
0780
0300
0000
ENDCHAR
STARTCHAR stairs_up
ENCODING 8599
SWIDTH 923 0
DWIDTH 14 0
BBX 14 14 0 -3
BITMAP
0000
0000
0050
0068
0050
03E8
03F0
03E0
1FC0
1F80
1F00
FE00
0000
0000
ENDCHAR
STARTCHAR stairs_down
ENCODING 8600
SWIDTH 923 0
DWIDTH 14 0
BBX 14 14 0 -3
BITMAP
0000
F800
F800
F800
7F00
3F00
1F00
0FE0
07C0
03E0
01D0
00E8
0050
0000
ENDCHAR
STARTCHAR char8710
ENCODING 8710
SWIDTH 923 0
DWIDTH 14 0
BBX 14 14 0 -3
BITMAP
0000
0300
0780
0780
0FC0
0DC0
18E0
18E0
3070
3FF0
7FF8
0000
0000
0000
ENDCHAR
STARTCHAR char8734
ENCODING 8734
SWIDTH 923 0
DWIDTH 14 0
BBX 14 14 0 -3
BITMAP
0000
0000
0000
0000
1CE0
3FF0
7338
7338
3FF0
1CE0
0000
0000
0000
0000
ENDCHAR
STARTCHAR char8745
ENCODING 8745
SWIDTH 923 0
DWIDTH 14 0
BBX 14 14 0 -3
BITMAP
0000
0F80
1DC0
38E0
38E0
7070
7070
7070
7070
7070
7070
0000
0000
0000
ENDCHAR
STARTCHAR char8746
ENCODING 8746
SWIDTH 923 0
DWIDTH 14 0
BBX 14 14 0 -3
BITMAP
0000
7070
7070
7070
7070
7070
7070
38E0
38E0
1DC0
0F80
0000
0000
0000
ENDCHAR
STARTCHAR wavy
ENCODING 8776
SWIDTH 923 0
DWIDTH 14 0
BBX 14 14 0 -3
BITMAP
0000
0000
0000
60C0
F1E0
9324
1E3C
6CD8
F1E0
9324
1E3C
0C18
0000
0000
ENDCHAR
STARTCHAR char29
ENCODING 8800
SWIDTH 923 0
DWIDTH 14 0
BBX 14 14 0 -3
BITMAP
0000
0000
0000
00E0
3FF0
3FF0
0380
0700
3FF0
3FF0
1C00
0000
0000
0000
ENDCHAR
STARTCHAR char26
ENCODING 8804
SWIDTH 923 0
DWIDTH 14 0
BBX 14 14 0 -3
BITMAP
0000
0000
0078
03E0
1F00
7800
1F00
03E0
0078
7FF8
7FF8
0000
0000
0000
ENDCHAR
STARTCHAR char27
ENCODING 8805
SWIDTH 923 0
DWIDTH 14 0
BBX 14 14 0 -3
BITMAP
0000
0000
7800
1F00
03E0
0078
03E0
1F00
7800
7FF8
7FF8
0000
0000
0000
ENDCHAR
STARTCHAR draw_left
ENCODING 8826
SWIDTH 923 0
DWIDTH 14 0
BBX 14 14 0 -3
BITMAP
001C
003C
0078
00F0
01E0
01C0
03C0
03C0
01C0
01E0
00F0
0078
003C
001C
ENDCHAR
STARTCHAR draw_right
ENCODING 8827
SWIDTH 923 0
DWIDTH 14 0
BBX 14 14 0 -3
BITMAP
E000
F000
7800
3C00
1E00
0E00
0F00
0F00
0E00
1E00
3C00
7800
F000
E000
ENDCHAR
STARTCHAR draw_down
ENCODING 8910
SWIDTH 923 0
DWIDTH 14 0
BBX 14 14 0 -3
BITMAP
C00C
E01C
F03C
7878
3FF0
1FE0
0FC0
0300
0000
0000
0000
0000
0000
0000
ENDCHAR
STARTCHAR draw_up
ENCODING 8911
SWIDTH 923 0
DWIDTH 14 0
BBX 14 14 0 -3
BITMAP
0000
0000
0000
0000
0000
0000
0300
0FC0
1FE0
3FF0
7878
F03C
E01C
C00C
ENDCHAR
STARTCHAR item_detected
ENCODING 8962
SWIDTH 923 0
DWIDTH 14 0
BBX 14 14 0 -3
BITMAP
0000
0300
0780
0CC0
1860
3030
3030
3030
3030
3030
3FF0
0000
0000
0000
ENDCHAR
STARTCHAR char8992
ENCODING 8992
SWIDTH 923 0
DWIDTH 14 0
BBX 14 14 0 -3
BITMAP
0000
0000
03E0
0770
0700
0700
0700
0700
0700
0700
0700
0700
0700
0700
ENDCHAR
STARTCHAR char8993
ENCODING 8993
SWIDTH 923 0
DWIDTH 14 0
BBX 14 14 0 -3
BITMAP
0700
0700
0700
0700
0700
0700
0700
0700
0700
7700
7700
3E00
0000
0000
ENDCHAR
STARTCHAR char16
ENCODING 9146
SWIDTH 923 0
DWIDTH 14 0
BBX 14 14 0 -3
BITMAP
FFFC
FFFC
0000
0000
0000
0000
0000
0000
0000
0000
0000
0000
0000
0000
ENDCHAR
STARTCHAR char17
ENCODING 9147
SWIDTH 923 0
DWIDTH 14 0
BBX 14 14 0 -3
BITMAP
0000
0000
0000
FFFC
FFFC
0000
0000
0000
0000
0000
0000
0000
0000
0000
ENDCHAR
STARTCHAR char19
ENCODING 9148
SWIDTH 923 0
DWIDTH 14 0
BBX 14 14 0 -3
BITMAP
0000
0000
0000
0000
0000
0000
0000
0000
0000
FFFC
FFFC
0000
0000
0000
ENDCHAR
STARTCHAR char20
ENCODING 9149
SWIDTH 923 0
DWIDTH 14 0
BBX 14 14 0 -3
BITMAP
0000
0000
0000
0000
0000
0000
0000
0000
0000
0000
0000
0000
FFFC
FFFC
ENDCHAR
STARTCHAR char3
ENCODING 9225
SWIDTH 923 0
DWIDTH 14 0
BBX 14 14 0 -3
BITMAP
0000
7700
7700
7F00
7700
7700
03F8
00E0
00E0
00E0
00E0
0000
0000
0000
ENDCHAR
STARTCHAR char6
ENCODING 9226
SWIDTH 923 0
DWIDTH 14 0
BBX 14 14 0 -3
BITMAP
0000
7000
7000
7000
7000
71F8
7FC0
01F0
01C0
01C0
01C0
0000
0000
0000
ENDCHAR
STARTCHAR char10
ENCODING 9227
SWIDTH 923 0
DWIDTH 14 0
BBX 14 14 0 -3
BITMAP
0000
7380
7380
7380
3F00
1FF8
0CE0
00E0
00E0
00E0
00E0
0000
0000
0000
ENDCHAR
STARTCHAR char4
ENCODING 9228
SWIDTH 923 0
DWIDTH 14 0
BBX 14 14 0 -3
BITMAP
0000
7E00
7000
7C00
7000
71F8
71C0
01F0
01C0
01C0
01C0
0000
0000
0000
ENDCHAR
STARTCHAR char5
ENCODING 9229
SWIDTH 923 0
DWIDTH 14 0
BBX 14 14 0 -3
BITMAP
0000
3C00
7600
7000
7000
77F0
3DD8
01D8
01F0
01F8
01D8
0000
0000
0000
ENDCHAR
STARTCHAR char9
ENCODING 9252
SWIDTH 923 0
DWIDTH 14 0
BBX 14 14 0 -3
BITMAP
0000
7380
7B80
7F80
7F80
77C0
73C0
01C0
01C0
01F8
01F8
0000
0000
0000
ENDCHAR
STARTCHAR char18
ENCODING 9472
SWIDTH 923 0
DWIDTH 14 0
BBX 14 14 0 -3
BITMAP
0000
0000
0000
0000
0000
0000
FFFC
FFFC
0000
0000
0000
0000
0000
0000
ENDCHAR
STARTCHAR char9474
ENCODING 9474
SWIDTH 923 0
DWIDTH 14 0
BBX 14 14 0 -3
BITMAP
0300
0300
0300
0300
0300
0300
0300
0300
0300
0300
0300
0300
0300
0300
ENDCHAR
STARTCHAR draw_horiz
ENCODING 9476
SWIDTH 923 0
DWIDTH 14 0
BBX 14 14 0 -3
BITMAP
0000
0000
0000
0000
30C0
F9F0
FFFC
CF3C
060C
0000
0000
0000
0000
0000
ENDCHAR
STARTCHAR draw_vert
ENCODING 9478
SWIDTH 923 0
DWIDTH 14 0
BBX 14 14 0 -3
BITMAP
0380
0380
01C0
01C0
0380
0700
0700
0380
01C0
01C0
0380
0380
0700
0700
ENDCHAR
STARTCHAR char13
ENCODING 9484
SWIDTH 923 0
DWIDTH 14 0
BBX 14 14 0 -3
BITMAP
0000
0000
0000
0000
0000
0000
03FC
03FC
0300
0300
0300
0300
0300
0300
ENDCHAR
STARTCHAR char12
ENCODING 9488
SWIDTH 923 0
DWIDTH 14 0
BBX 14 14 0 -3
BITMAP
0000
0000
0000
0000
0000
0000
FF00
FF00
0300
0300
0300
0300
0300
0300
ENDCHAR
STARTCHAR char14
ENCODING 9492
SWIDTH 923 0
DWIDTH 14 0
BBX 14 14 0 -3
BITMAP
0300
0300
0300
0300
0300
0300
03FC
03FC
0000
0000
0000
0000
0000
0000
ENDCHAR
STARTCHAR char11
ENCODING 9496
SWIDTH 923 0
DWIDTH 14 0
BBX 14 14 0 -3
BITMAP
0300
0300
0300
0300
0300
0300
FF00
FF00
0000
0000
0000
0000
0000
0000
ENDCHAR
STARTCHAR char9500
ENCODING 9500
SWIDTH 923 0
DWIDTH 14 0
BBX 14 14 0 -3
BITMAP
0300
0300
0300
0300
0300
0300
03FC
03FC
0300
0300
0300
0300
0300
0300
ENDCHAR
STARTCHAR char9508
ENCODING 9508
SWIDTH 923 0
DWIDTH 14 0
BBX 14 14 0 -3
BITMAP
0300
0300
0300
0300
0300
0300
FF00
FF00
0300
0300
0300
0300
0300
0300
ENDCHAR
STARTCHAR char9516
ENCODING 9516
SWIDTH 923 0
DWIDTH 14 0
BBX 14 14 0 -3
BITMAP
0000
0000
0000
0000
0000
0000
FFFC
FFFC
0300
0300
0300
0300
0300
0300
ENDCHAR
STARTCHAR char9524
ENCODING 9524
SWIDTH 923 0
DWIDTH 14 0
BBX 14 14 0 -3
BITMAP
0300
0300
0300
0300
0300
0300
FFFC
FFFC
0000
0000
0000
0000
0000
0000
ENDCHAR
STARTCHAR char15
ENCODING 9532
SWIDTH 923 0
DWIDTH 14 0
BBX 14 14 0 -3
BITMAP
0300
0300
0300
0300
0300
0300
FFFC
FFFC
0300
0300
0300
0300
0300
0300
ENDCHAR
STARTCHAR frame_horiz
ENCODING 9552
SWIDTH 923 0
DWIDTH 14 0
BBX 14 14 0 -3
BITMAP
0000
0000
0000
0000
FFFC
FFFC
0000
FFFC
FFFC
0000
0000
0000
0000
0000
ENDCHAR
STARTCHAR frame_vert
ENCODING 9553
SWIDTH 923 0
DWIDTH 14 0
BBX 14 14 0 -3
BITMAP
0D80
0D80
0D80
0D80
0D80
0D80
0D80
0D80
0D80
0D80
0D80
0D80
0D80
0D80
ENDCHAR
STARTCHAR frame_top_left
ENCODING 9556
SWIDTH 923 0
DWIDTH 14 0
BBX 14 14 0 -3
BITMAP
0000
0000
0000
0000
0FFC
0FFC
0C00
0DFC
0DFC
0D80
0D80
0D80
0D80
0D80
ENDCHAR
STARTCHAR frame_top_right
ENCODING 9559
SWIDTH 923 0
DWIDTH 14 0
BBX 14 14 0 -3
BITMAP
0000
0000
0000
0000
FF80
FF80
0180
FD80
FD80
0D80
0D80
0D80
0D80
0D80
ENDCHAR
STARTCHAR char13
ENCODING 9562
SWIDTH 923 0
DWIDTH 14 0
BBX 14 14 0 -3
BITMAP
0D80
0D80
0D80
0D80
0DFC
0DFC
0C00
0FFC
0FFC
0000
0000
0000
0000
0000
ENDCHAR
STARTCHAR frame_bottom_right
ENCODING 9565
SWIDTH 923 0
DWIDTH 14 0
BBX 14 14 0 -3
BITMAP
0D80
0D80
0D80
0D80
FD80
FD80
0180
FF80
FF80
0000
0000
0000
0000
0000
ENDCHAR
STARTCHAR draw_top_left
ENCODING 9581
SWIDTH 923 0
DWIDTH 14 0
BBX 14 14 0 -3
BITMAP
0000
0000
0000
0000
0000
001C
007C
00FC
01E0
0380
0380
0700
0700
0700
ENDCHAR
STARTCHAR draw_top_right
ENCODING 9582
SWIDTH 923 0
DWIDTH 14 0
BBX 14 14 0 -3
BITMAP
0000
0000
0000
0000
0000
E000
F800
FC00
1E00
0700
0700
0380
0380
0380
ENDCHAR
STARTCHAR draw_bottom_right
ENCODING 9583
SWIDTH 923 0
DWIDTH 14 0
BBX 14 14 0 -3
BITMAP
0380
0380
0380
0700
0700
1E00
FC00
F800
E000
0000
0000
0000
0000
0000
ENDCHAR
STARTCHAR draw_bottom_left
ENCODING 9584
SWIDTH 923 0
DWIDTH 14 0
BBX 14 14 0 -3
BITMAP
0700
0700
0700
0380
0380
01E0
00FC
007C
001C
0000
0000
0000
0000
0000
ENDCHAR
STARTCHAR draw_slash
ENCODING 9585
SWIDTH 923 0
DWIDTH 14 0
BBX 14 14 0 -3
BITMAP
001C
007C
0070
00E0
01E0
01C0
0380
0700
0E00
1E00
1C00
3800
F800
E000
ENDCHAR
STARTCHAR draw_backslash
ENCODING 9586
SWIDTH 923 0
DWIDTH 14 0
BBX 14 14 0 -3
BITMAP
E000
E000
7000
7C00
1C00
0E00
0F00
03C0
01C0
00E0
00F8
0038
001C
001C
ENDCHAR
STARTCHAR char9608
ENCODING 9608
SWIDTH 923 0
DWIDTH 14 0
BBX 14 14 0 -3
BITMAP
FFFC
FFFC
FFFC
FFFC
FFFC
FFFC
FFFC
FFFC
FFFC
FFFC
FFFC
FFFC
FFFC
FFFC
ENDCHAR
STARTCHAR wall_magic
ENCODING 9617
SWIDTH 923 0
DWIDTH 14 0
BBX 14 14 0 -3
BITMAP
9120
0408
2040
8910
1020
4488
0000
9120
0408
2040
8910
1020
4488
0000
ENDCHAR
STARTCHAR wall
ENCODING 9618
SWIDTH 923 0
DWIDTH 14 0
BBX 14 14 0 -3
BITMAP
5554
AAA8
5554
AAA8
5554
AAA8
5554
AAA8
5554
AAA8
5554
AAA8
5554
AAA8
ENDCHAR
STARTCHAR permawall
ENCODING 9619
SWIDTH 923 0
DWIDTH 14 0
BBX 14 14 0 -3
BITMAP
6EDC
FBF4
DFBC
76EC
EFDC
BB74
FFFC
6EDC
FBF4
DFBC
76EC
EFDC
BB74
FFFC
ENDCHAR
STARTCHAR grate
ENCODING 9638
SWIDTH 923 0
DWIDTH 14 0
BBX 14 14 0 -3
BITMAP
3330
3330
FFFC
FFFC
3330
3330
FFFC
FFFC
3330
3330
FFFC
FFFC
3330
3330
ENDCHAR
STARTCHAR item_food
ENCODING 9661
SWIDTH 923 0
DWIDTH 14 0
BBX 14 14 0 -3
BITMAP
0000
1F80
1FF8
1DF8
1870
18E0
39C0
3380
3700
3E00
3C00
3800
3000
0000
ENDCHAR
STARTCHAR item_detected
ENCODING 9674
SWIDTH 923 0
DWIDTH 14 0
BBX 14 14 0 -3
BITMAP
0000
0780
0FC0
0CC0
1CE0
1860
3870
1860
1CE0
0CC0
0FC0
0780
0000
0000
ENDCHAR
STARTCHAR cloud_fading
ENCODING 9675
SWIDTH 923 0
DWIDTH 14 0
BBX 14 14 0 -3
BITMAP
0000
0000
0000
0000
0020
1890
2428
5148
8004
4008
1AB0
0000
0000
0000
ENDCHAR
STARTCHAR cloud_terminal
ENCODING 9676
SWIDTH 923 0
DWIDTH 14 0
BBX 14 14 0 -3
BITMAP
0000
0000
0000
0000
0000
0000
1400
64A0
2890
0108
00B0
0000
0000
0000
ENDCHAR
STARTCHAR item_rune
ENCODING 9677
SWIDTH 923 0
DWIDTH 14 0
BBX 14 14 0 -3
BITMAP
0000
0000
0780
1FE0
38F0
31B0
71B8
6318
7338
3FF0
1FE0
0000
0000
0000
ENDCHAR
STARTCHAR item_orb
ENCODING 9678
SWIDTH 923 0
DWIDTH 14 0
BBX 14 14 0 -3
BITMAP
0000
0780
1FE0
3CF0
3870
7338
77B8
7338
3870
3CF0
1FE0
0780
0000
0000
ENDCHAR
STARTCHAR floor_magic
ENCODING 9702
SWIDTH 923 0
DWIDTH 14 0
BBX 14 14 0 -3
BITMAP
0000
0000
0000
0000
0780
0FC0
0CC0
0CC0
0FC0
0780
0000
0000
0000
0000
ENDCHAR
STARTCHAR door_open
ENCODING 9723
SWIDTH 923 0
DWIDTH 14 0
BBX 14 14 0 -3
BITMAP
0000
0000
3FF0
3FF0
3030
3030
3030
3030
3030
3030
3FF0
3FF0
0000
0000
ENDCHAR
STARTCHAR door_closed
ENCODING 9724
SWIDTH 923 0
DWIDTH 14 0
BBX 14 14 0 -3
BITMAP
0000
0000
0000
1FE0
1FE0
1FE0
1FE0
1FE0
1FE0
1FE0
1FE0
0000
0000
0000
ENDCHAR
STARTCHAR fired_burst
ENCODING 9728
SWIDTH 923 0
DWIDTH 14 0
BBX 14 14 0 -3
BITMAP
0000
0300
1320
3870
1320
0780
6FD8
6FD8
0780
1320
3870
1320
0300
0000
ENDCHAR
STARTCHAR cloud
ENCODING 9729
SWIDTH 923 0
DWIDTH 14 0
BBX 14 14 0 -3
BITMAP
0000
0000
00C0
1DE0
3F30
3378
6018
6018
3338
19F0
1FC0
0E00
0000
0000
ENDCHAR
STARTCHAR statue
ENCODING 9731
SWIDTH 923 0
DWIDTH 14 0
BBX 14 14 0 -3
BITMAP
0000
0300
0780
0300
0FC0
0FC0
0FC0
0780
0300
3FF0
7FF8
0000
0000
0000
ENDCHAR
STARTCHAR fired_missile
ENCODING 9732
SWIDTH 923 0
DWIDTH 14 0
BBX 14 14 0 -3
BITMAP
0000
0600
26C0
3780
1F00
7FE0
7FE0
0F80
1EC0
3640
0600
0000
0000
0000
ENDCHAR
STARTCHAR item_skeleton
ENCODING 9760
SWIDTH 923 0
DWIDTH 14 0
BBX 14 14 0 -3
BITMAP
0000
0000
1030
3878
7C78
3FE0
07C0
0780
1FC0
7CF8
7878
1830
0000
0000
ENDCHAR
STARTCHAR item_wand
ENCODING 9764
SWIDTH 923 0
DWIDTH 14 0
BBX 14 14 0 -3
BITMAP
0120
0000
04E4
01F0
01F0
03E4
0780
0F10
1E00
3C00
7800
F000
E000
0000
ENDCHAR
STARTCHAR item_rod
ENCODING 9765
SWIDTH 923 0
DWIDTH 14 0
BBX 14 14 0 -3
BITMAP
0000
3800
7C00
6C00
6E00
6F00
0780
03C0
01E0
00F0
0078
003C
001C
0000
ENDCHAR
STARTCHAR item_miscellany
ENCODING 9773
SWIDTH 923 0
DWIDTH 14 0
BBX 14 14 0 -3
BITMAP
0000
0000
0000
0FFC
181C
302C
7FDC
602C
7FD8
6030
7FE0
0000
0000
0000
ENDCHAR
STARTCHAR cloud_weak
ENCODING 9788
SWIDTH 923 0
DWIDTH 14 0
BBX 14 14 0 -3
BITMAP
0000
0000
0000
0000
00E0
1DB0
3638
736C
C00C
6018
3FF0
0000
0000
0000
ENDCHAR
STARTCHAR item_ring
ENCODING 9793
SWIDTH 923 0
DWIDTH 14 0
BBX 14 14 0 -3
BITMAP
0000
0000
0000
0000
1FE0
3FF0
7878
7038
7878
3FF0
1FE0
0000
0000
0000
ENDCHAR
STARTCHAR item_amulet
ENCODING 9908
SWIDTH 923 0
DWIDTH 14 0
BBX 14 14 0 -3
BITMAP
0000
3030
3030
3030
1860
1860
0CC0
0780
0300
0780
0CC0
0780
0300
0000
ENDCHAR
STARTCHAR wavy
ENCODING 9810
SWIDTH 923 0
DWIDTH 14 0
BBX 14 14 0 -3
BITMAP
0000
0000
0000
60C0
F1E0
9324
1E3C
6CD8
F1E0
9324
1E3C
0C18
0000
0000
ENDCHAR
STARTCHAR item_armour
ENCODING 9813
SWIDTH 923 0
DWIDTH 14 0
BBX 14 14 0 -3
BITMAP
0000
FDF8
FFF8
3060
33F8
3318
3B18
1B18
19B0
3FE0
7070
6030
7FF0
0000
ENDCHAR
STARTCHAR tree
ENCODING 9827
SWIDTH 923 0
DWIDTH 14 0
BBX 14 14 0 -3
BITMAP
0000
0780
0FC0
0FC0
0FC0
3FF0
7FF8
7FF8
7FF8
37B0
0780
0780
0FC0
0000
ENDCHAR
STARTCHAR char9830
ENCODING 9830
SWIDTH 923 0
DWIDTH 14 0
BBX 14 14 0 -3
BITMAP
0000
0300
0780
0FC0
1FE0
3FF0
7FF8
7FF8
3FF0
1FE0
0FC0
0780
0300
0000
ENDCHAR
STARTCHAR fountain
ENCODING 9832
SWIDTH 923 0
DWIDTH 14 0
BBX 14 14 0 -3
BITMAP
0000
0000
0B40
14A0
0300
2B50
0300
1FE0
0FC0
1FE0
7FF8
0000
0000
0000
ENDCHAR
STARTCHAR item_scroll
ENCODING 9852
SWIDTH 923 0
DWIDTH 14 0
BBX 14 14 0 -3
BITMAP
0000
3FF0
7FF8
6060
6760
7770
3030
33B0
3838
1BD8
1818
3FF8
1FF0
0000
ENDCHAR
STARTCHAR item_book
ENCODING 9854
SWIDTH 923 0
DWIDTH 14 0
BBX 14 14 0 -3
BITMAP
0000
3030
7CF8
7FF8
77B8
7338
7338
7338
7338
7FF8
7FF8
0780
0000
0000
ENDCHAR
STARTCHAR item_weapon
ENCODING 9876
SWIDTH 923 0
DWIDTH 14 0
BBX 14 14 0 -3
BITMAP
0000
0070
00F0
01F0
03E0
07C0
2F80
3F00
3E00
7C00
7E00
7000
0000
0000
ENDCHAR
STARTCHAR item_staff
ENCODING 9877
SWIDTH 923 0
DWIDTH 14 0
BBX 14 14 0 -3
BITMAP
0000
0000
0380
07C0
07C0
0380
0380
0380
0380
0380
0380
0380
0000
0000
ENDCHAR
STARTCHAR item_potion
ENCODING 9879
SWIDTH 923 0
DWIDTH 14 0
BBX 14 14 0 -3
BITMAP
0000
0FC0
0780
0780
0FC0
1FE0
3FF0
3FF0
3FF0
1FE0
0FC0
0000
0000
0000
ENDCHAR
STARTCHAR teleporter
ENCODING 9883
SWIDTH 923 0
DWIDTH 14 0
BBX 14 14 0 -3
BITMAP
1FC0
78F0
E038
78F0
1FC0
78F0
E038
78F0
1FC0
78F0
E038
78F0
1FC0
0000
ENDCHAR
STARTCHAR trap
ENCODING 9888
SWIDTH 923 0
DWIDTH 14 0
BBX 14 14 0 -3
BITMAP
0000
0000
0000
0000
0000
3FF0
3030
6498
6498
CFCC
FFFC
0000
0000
0000
ENDCHAR
STARTCHAR fired_bolt
ENCODING 9735
SWIDTH 923 0
DWIDTH 14 0
BBX 14 14 0 -3
BITMAP
00E0
01C0
0380
0600
0FE0
00E0
01C0
0380
0600
0FE0
00E0
01C0
0380
0600
ENDCHAR
STARTCHAR item_corpse
ENCODING 9904
SWIDTH 923 0
DWIDTH 14 0
BBX 14 14 0 -3
BITMAP
0000
0000
0300
0300
0FC0
0300
0300
0300
0780
0FC0
1FE0
1FE0
0000
0000
ENDCHAR
STARTCHAR transporter
ENCODING 9921
SWIDTH 923 0
DWIDTH 14 0
BBX 14 14 0 -3
BITMAP
1FC0
78F0
E038
78F0
1FC0
78F0
E038
78F0
1FC0
78F0
E038
F8F8
7FF0
1FC0
ENDCHAR
STARTCHAR transporter_landing
ENCODING 9923
SWIDTH 923 0
DWIDTH 14 0
BBX 14 14 0 -3
BITMAP
0000
0000
0000
0000
1FC0
78F0
E738
78F0
E738
78F0
E738
F8F8
7FF0
1FC0
ENDCHAR
STARTCHAR altar
ENCODING 10014
SWIDTH 923 0
DWIDTH 14 0
BBX 14 14 0 -3
BITMAP
0000
0000
0000
0000
0000
1FE0
0CC0
0CC0
0CC0
3FF0
7FF8
0000
0000
0000
ENDCHAR
STARTCHAR explosion
ENCODING 10037
SWIDTH 923 0
DWIDTH 14 0
BBX 14 14 0 -3
BITMAP
0200
4A90
3760
3FE0
5FD0
3FE0
FFF8
3FE0
5FD0
3FE0
3760
4A90
0200
0000
ENDCHAR
STARTCHAR fired_zap
ENCODING 10039
SWIDTH 923 0
DWIDTH 14 0
BBX 14 14 0 -3
BITMAP
E384
619C
731C
1670
1F40
C7E0
EFF4
BFDC
1F8C
0BE0
39A0
E338
E618
871C
ENDCHAR
STARTCHAR invis_exposed
ENCODING 11822
SWIDTH 923 0
DWIDTH 14 0
BBX 14 14 0 -3
BITMAP
0000
1FE0
3870
7030
3800
0E00
0700
0E00
0000
0700
0380
0000
0000
0000
ENDCHAR
ENDFONT
